<?xml version="1.0" standalone="no"?>
<!DOCTYPE svg PUBLIC "-//W3C//DTD SVG 20010904//EN"
 "http://www.w3.org/TR/2001/REC-SVG-20010904/DTD/svg10.dtd">
<svg version="1.0" xmlns="http://www.w3.org/2000/svg"
 width="390.000000pt" height="390.000000pt" viewBox="0 0 390.000000 390.000000"
 preserveAspectRatio="xMidYMid meet">
<metadata>
Created by potrace 1.14, written by Peter Selinger 2001-2017
</metadata>
<g transform="translate(0.000000,390.000000) scale(0.100000,-0.100000)"
fill="#000000" stroke="none">
<path d="M0 1950 l0 -1950 1950 0 1950 0 0 1950 0 1950 -1950 0 -1950 0 0
-1950z m466 569 l142 -41 10 -82 c6 -44 9 -82 7 -84 -6 -6 -291 111 -301 125
-7 8 -15 35 -19 60 -4 25 -9 52 -12 60 -5 11 -1 14 13 10 10 -3 83 -25 160
-48z m412 -18 c41 -11 75 -21 77 -23 2 -2 -6 -44 -17 -93 -18 -76 -22 -122
-22 -290 0 -206 11 -292 49 -365 20 -38 58 -63 84 -55 35 11 43 64 42 281 -1
125 2 204 8 204 11 0 183 -61 191 -67 2 -2 3 -105 1 -228 -3 -269 5 -314 74
-382 48 -48 72 -53 103 -20 95 101 108 435 31 769 -11 48 -19 94 -17 101 2 11
30 7 133 -17 127 -31 130 -32 147 -66 9 -19 28 -92 43 -162 50 -249 28 -531
-55 -702 -30 -63 -86 -123 -126 -136 -129 -43 -314 70 -399 243 -21 42 -39 77
-41 77 -2 0 -14 -11 -28 -25 -70 -70 -215 16 -296 176 -81 158 -118 450 -86
668 15 101 22 131 29 131 1 0 35 -9 75 -19z m-371 -297 l142 -67 6 -46 c4 -25
9 -59 12 -74 l5 -29 -34 18 c-18 9 -85 45 -149 80 -111 61 -117 66 -124 102
-3 20 -9 47 -12 60 -3 12 -1 22 3 22 5 0 73 -29 151 -66z m2492 -432 c294 -87
536 -163 538 -169 3 -8 -169 -284 -197 -316 -3 -4 -60 13 -126 38 -65 26 -261
100 -434 167 -173 66 -371 141 -440 168 -104 39 -124 51 -122 66 5 27 63 238
68 246 5 8 70 -10 713 -200z m-482 -503 c202 -94 422 -196 488 -226 66 -30
123 -58 127 -62 4 -4 -26 -57 -68 -119 l-75 -113 -82 45 c-87 47 -361 194
-644 345 -113 61 -173 98 -173 109 0 9 9 50 21 91 25 95 27 101 33 101 2 0
170 -77 373 -171z"/>
</g>
</svg>
